<svg width="15" height="15" viewBox="0 0 15 15" fill="none" xmlns="http://www.w3.org/2000/svg">
<path d="M14.2805 15L8.61192 9.34498C8.17587 9.72344 7.67079 10.0182 7.09666 10.2293C6.52253 10.4403 5.92296 10.5459 5.29796 10.5459C3.81541 10.5459 2.56177 10.0328 1.53706 9.00655C0.512354 7.98035 0 6.73217 0 5.26201C0 3.8064 0.512354 2.5655 1.53706 1.5393C2.56177 0.5131 3.80814 0 5.27616 0C6.74419 0 7.99055 0.5131 9.01526 1.5393C10.04 2.5655 10.5523 3.8064 10.5523 5.26201C10.5523 5.87336 10.4469 6.47016 10.2362 7.0524C10.0254 7.63464 9.72384 8.15866 9.3314 8.62445L15 14.2795L14.2805 15ZM5.29796 9.56332C6.47529 9.56332 7.4782 9.14483 8.30669 8.30786C9.13517 7.47089 9.54942 6.4556 9.54942 5.26201C9.54942 4.06841 9.13517 3.05677 8.30669 2.22707C7.4782 1.39738 6.47529 0.982533 5.29796 0.982533C4.09157 0.982533 3.07413 1.39738 2.24564 2.22707C1.41715 3.05677 1.00291 4.06841 1.00291 5.26201C1.00291 6.4556 1.41715 7.47089 2.24564 8.30786C3.07413 9.14483 4.09157 9.56332 5.29796 9.56332Z" fill="black"/>
</svg>
